inDegrees=no
num_controls=7
num_derivatives=13
num_iterations=133
num_multipliers=7
num_parameters=0
num_slacks=7
num_states=26
objective=0.478638
objective_accelerations=0.041553
objective_balance=0.003533
objective_effort=0.038254
objective_height=0.389603
objective_ligament=0.005694
solver_duration=1815.062177
status=Solve_Succeeded
success=true
DataType=double
version=3
OpenSimVersion=4.5
endheader
time	/jointset/ground_pelvis/pelvis_tilt/value	/jointset/ground_pelvis/pelvis_tx/value	/jointset/ground_pelvis/pelvis_ty/value	/jointset/hip_l/hip_flexion_l/value	/jointset/hip_l/hip_adduction_l/value	/jointset/hip_l/hip_rotation_l/value	/jointset/back/lumbar_extension/value	/jointset/patellofemoral_l/patellar_flexion_l/value	/jointset/knee_l/knee_flexion_l/value	/jointset/knee_l/knee_adduction_l/value	/jointset/knee_l/knee_rotation_l/value	/jointset/ankle_l/ankle_angle_l/value	/jointset/subtalar_l/subtalar_angle_l/value	/jointset/ground_pelvis/pelvis_tilt/speed	/jointset/ground_pelvis/pelvis_tx/speed	/jointset/ground_pelvis/pelvis_ty/speed	/jointset/hip_l/hip_flexion_l/speed	/jointset/hip_l/hip_adduction_l/speed	/jointset/hip_l/hip_rotation_l/speed	/jointset/back/lumbar_extension/speed	/jointset/patellofemoral_l/patellar_flexion_l/speed	/jointset/knee_l/knee_flexion_l/speed	/jointset/knee_l/knee_adduction_l/speed	/jointset/knee_l/knee_rotation_l/speed	/jointset/ankle_l/ankle_angle_l/speed	/jointset/subtalar_l/subtalar_angle_l/speed	/forceset/tau_hip_flexion_l	/forceset/tau_hip_adduction_l	/forceset/tau_hip_rotation_l	/forceset/tau_knee_flexion_l	/forceset/tau_ankle_angle_l	/forceset/tau_subtalar_angle_l	/forceset/tau_lumbar_extension	lambda_cid13_p0	lambda_cid13_p1	lambda_cid13_p2	lambda_cid13_p3	lambda_cid13_p4	lambda_cid13_p5	lambda_cid14_p0	/jointset/ground_pelvis/pelvis_tilt/accel	/jointset/ground_pelvis/pelvis_tx/accel	/jointset/ground_pelvis/pelvis_ty/accel	/jointset/hip_l/hip_flexion_l/accel	/jointset/hip_l/hip_adduction_l/accel	/jointset/hip_l/hip_rotation_l/accel	/jointset/back/lumbar_extension/accel	/jointset/patellofemoral_l/patellar_flexion_l/accel	/jointset/knee_l/knee_flexion_l/accel	/jointset/knee_l/knee_adduction_l/accel	/jointset/knee_l/knee_rotation_l/accel	/jointset/ankle_l/ankle_angle_l/accel	/jointset/subtalar_l/subtalar_angle_l/accel	gamma_cid13_p0	gamma_cid13_p1	gamma_cid13_p2	gamma_cid13_p3	gamma_cid13_p4	gamma_cid13_p5	gamma_cid14_p0
0.5	-0.08277443724589176	-0.03583227696478185	0.8164140991335632	0.8848835291707399	-0.3302456424453059	-0.08787590729604926	-0.7846619895494585	0.8870419077189979	0.8870419077190114	-0.1094513870953428	-0.1744811435203786	0.1465207616983259	0.0118937979558751	-0.09855923514618302	-0.1528002362413957	-0.3790524635055511	1.478687270534699	-0.03604912277654747	0.5433914701731399	-0.8418784670711276	1.692361057162654	1.692361057162594	0.1357271601673551	0.0003130697366249408	0.42743588214504	0.1055961871025157	-0.2611707180722511	0.0217448499515706	-0.003982509699647961	-0.242065458609195	0.07895327987344719	0.04659622829611616	0.3206728568644377	-18.71947492996698	-18.83251556156112	4.688004688979419	-7.769379230297594	-701.3882246833881	-76.92663023360173	-11.13676526853239	0.2415851249351894	0.6150964137771273	-0.1767505951930748	-1.415411971815175	0.3111012393994115	-0.4826910915683884	1.795692369235606	-1.335903701970573	-1.335903701970576	-0.2151998660194123	-0.003641181466897759	-0.2242769850512822	0.3225033786050739	-2.119065936479838e-07	-2.298654989457267e-07	1.187594615305574e-06	9.476090370802149e-08	-2.332787245502538e-07	-1.67764129190095e-07	-1.816535240834311e-07
0.51	-0.08374784041727165	-0.03732948400595648	0.8126155747152848	0.8995974025776544	-0.330591348167118	-0.08246554639613653	-0.7929900797564261	0.9038960414385134	0.9038960414385332	-0.1081071265064714	-0.1744781776158045	0.1507828744617292	0.01296467710542374	-0.09610759762312247	-0.1466382513504498	-0.3805659214447805	1.463880620607497	-0.03310208513158126	0.538615090687185	-0.8236510315785859	1.678220124001364	1.678220124001308	0.1331146978223574	0.0002750417614839082	0.4249148296281333	0.1085487494437726	-0.2669647101040082	0.02216499339062679	-0.004159103623168062	-0.2455520633591008	0.07791578715635586	0.04670507220443099	0.3265951432594049	-19.28944515465989	-18.73187180704293	4.616997555937308	-7.571954668678075	-705.5721742122955	-76.76745665287365	-10.46274188325031	0.2490031238748002	0.6172084501958293	-0.1257143818770769	-1.544336294819093	0.2848343416734745	-0.4851214797154101	1.84955055089267	-1.48998685363676	-1.489986853636079	-0.2858077291693902	-0.004406212079356894	-0.2767967997823229	0.2768834413267569	-2.036336722632597e-07	-1.455342998980521e-07	1.202561153308634e-06	1.050952762887534e-07	-2.216172511262983e-07	-1.262946735992217e-07	-1.73897041930081e-07
0.52	-0.0846963172018461	-0.03876497941353326	0.8088045015198961	0.9141570005269671	-0.3309079176495542	-0.07710495131160483	-0.8011332393261427	0.9206014060803276	0.9206014060803593	-0.1067892982031289	-0.1744756965122945	0.1550176212170092	0.0140641320342731	-0.09357395778472145	-0.1404579095218249	-0.3815622189275789	1.447832179014442	-0.03022187490148528	0.5334383070969743	-0.8048923396208691	1.662607241622933	1.662607241622882	0.1304407030601822	0.0002161095246779703	0.4219626805203477	0.1113113429626599	-0.2727587021357631	0.0225851368296838	-0.004335697546639097	-0.2490386681090081	0.07687829443926437	0.0468139161127459	0.3325174296543738	-19.86174978075271	-18.63118120739134	4.546397462998836	-7.414243192946976	-709.8223481118066	-76.65570748919963	-9.788374993786231	0.257985588003351	0.6187678013128789	-0.0733185039068764	-1.66377030498555	0.2977357564253733	-0.5627719124196027	1.901943662270643	-1.630293545398703	-1.630293545398725	-0.2275063494548921	-0.007822033799880349	-0.3104963032271078	0.2845096141311295	-1.914676920844628e-07	-9.571240475901214e-08	1.175282806953476e-06	1.070343682514304e-07	-2.067579353436968e-07	-9.044245895751641e-08	-1.647955051229586e-07
0.53	-0.08561905779554946	-0.04013862668025978	0.8049860686820379	0.9285500368813306	-0.3311959461683298	-0.07179799477012058	-0.8090862410938204	0.9371434551558545	0.9371434551558538	-0.1054983931698692	-0.1744737721784864	0.1592208032505459	0.01519037022656291	-0.09095890803530286	-0.1342728938219971	-0.382035598043595	1.430572832478935	-0.02739425821873241	0.527891393862789	-0.7856303212451071	1.645568596447638	1.645568596447663	0.1277342812638257	0.0001678975670412109	0.4186093588565431	0.1139066645496467	-0.2784275530243558	0.02294565109533904	-0.004471042685678174	-0.2525165536822429	0.07573090959013326	0.0468198890333185	0.3382977819763657	-20.4724134491009	-18.47370177138001	4.460579517054454	-7.16383066118004	-714.0233211264393	-76.47086379337254	-9.115610127818224	0.2655343678266711	0.6181875649989568	-0.02107481600849187	-1.787379607311263	0.2735465140229404	-0.5600401475363681	1.949984825722374	-1.775714555798733	-1.775714555787253	-0.2931027057915191	-0.003221684572383201	-0.357401977818975	0.2424737978445896	-1.818040496556224e-07	-8.080495561302612e-08	1.138172214369637e-06	1.041191600786567e-07	-1.943142543432274e-07	-6.608849935856734e-08	-1.587564670988554e-07
